<svg xmlns="http://www.w3.org/2000/svg" version="1.1" xmlns:xlink="http://www.w3.org/1999/xlink" xmlns:svgjs="http://svgjs.dev/svgjs" width="1500" height="1500" viewBox="0 0 1500 1500"><rect width="1500" height="1500" fill="#ffffff"></rect><g transform="matrix(0.6666666666666666,0,0,0.6666666666666666,249.39393939393938,687.2099954273272)"><svg viewBox="0 0 396 50" data-background-color="#ffffff" preserveAspectRatio="xMidYMid meet" height="189" width="1500" xmlns="http://www.w3.org/2000/svg" xmlns:xlink="http://www.w3.org/1999/xlink"><g id="tight-bounds" transform="matrix(1,0,0,1,0.2400000000000091,-0.08333151878062495)"><svg viewBox="0 0 395.52 50.166663037561236" height="50.166663037561236" width="395.52"><g><svg viewBox="0 0 395.52000000000004 50.16666303756124" height="50.166663037561236" width="395.52"><g><svg viewBox="0 0 395.52000000000004 50.16666303756124" height="50.16666303756124" width="395.52000000000004"><g id="textblocktransform"><svg viewBox="0 0 395.52000000000004 50.16666303756124" height="50.16666303756124" width="395.52000000000004" id="textblock"><g><svg viewBox="0 0 395.52000000000004 50.16666303756124" height="50.16666303756124" width="395.52000000000004"><g transform="matrix(1,0,0,1,0,0)"><svg width="395.52000000000004" viewBox="-0.55 -34.95 276.18 34.95" height="50.16666303756124" data-palette-color="#ffffff"><g class="wordmark-text-0" data-fill-palette-color="primary" id="text-0"><path d="M12.1-2.15L33.85-2.15 33.85 0-0.55 0-0.55-2.15 4.3-2.15 4.3-34.95 16.65-34.95Q24.7-34.95 28.38-31.83 32.05-28.7 32.05-22.23 32.05-15.75 28.28-12.75 24.5-9.75 16.75-9.75L16.75-9.75 12.1-9.75 12.1-2.15ZM17.35-16.5Q21.25-16.5 22.65-18.07 24.05-19.65 24.05-22.68 24.05-25.7 22.23-26.98 20.4-28.25 16.55-28.25L16.55-28.25 12.1-28.25 12.1-16.5 17.35-16.5ZM70.4-2.15L76.2-2.15 76.2 0 63.05 0 59.8-7.55 45.15-7.55 41.9 0 28.75 0 28.75-2.15 34.5-2.15 48.7-34.95 56.25-34.95 70.4-2.15ZM56.85-14.4L52.5-24.55 48.1-14.4 56.85-14.4ZM110.75-2.15L122.05-2.15 122.05 0 104.19 0 96.55-24.3 88.94 0 71.09 0 71.09-2.15 82.39-2.15 70.94-34.95 79.39-34.95 86.3-14.85 92.5-34.95 100.64-34.95 106.8-14.85 113.75-34.95 122.19-34.95 110.75-2.15ZM158.59-2.15L164.39-2.15 164.39 0 151.24 0 147.99-7.55 133.34-7.55 130.09 0 116.94 0 116.94-2.15 122.69-2.15 136.89-34.95 144.44-34.95 158.59-2.15ZM145.04-14.4L140.69-24.55 136.29-14.4 145.04-14.4ZM158.74-2.15L163.59-2.15 163.59-34.95 170.89-34.95 188.04-12.45 188.04-34.95 195.84-34.95 195.84-2.15 200.69-2.15 200.69 0 188.04 0 171.39-21.9 171.39 0 158.74 0 158.74-2.15ZM227.44-2.15L239.24-2.15 239.24 0 199.59 0 199.59-2.15 204.44-2.15 204.44-34.95 216.79-34.95Q226.14-34.95 231.14-30.38 236.14-25.8 236.14-17.5L236.14-17.5Q236.14-6.3 227.44-2.15L227.44-2.15ZM217.19-6.9Q222.54-6.9 225.41-9.6 228.29-12.3 228.29-17.45 228.29-22.6 225.41-25.38 222.54-28.15 216.59-28.15L216.59-28.15 212.24-28.15 212.24-6.9 217.19-6.9ZM270.79-2.15L275.63-2.15 275.63 0 236.69 0 236.69-2.15 241.54-2.15 241.54-5.35 259.84-28.2 242.14-28.2 242.14-34.95 270.49-34.95 270.49-29.55 252.24-6.8 270.79-6.8 270.79-2.15Z" fill="#000000" data-fill-palette-color="primary"></path></g></svg></g></svg></g></svg></g></svg></g><g></g></svg></g><defs></defs></svg><rect width="395.52" height="50.166663037561236" fill="none" stroke="none" visibility="hidden"></rect></g></svg></g></svg>