<svg xmlns="http://www.w3.org/2000/svg" version="1.1" xmlns:xlink="http://www.w3.org/1999/xlink" xmlns:svgjs="http://svgjs.dev/svgjs" width="1500" height="450" viewBox="0 0 1500 450"><g transform="matrix(1,0,0,1,-0.9090909090909918,0.8760337261043958)"><svg viewBox="0 0 396 119" data-background-color="#0718c4" preserveAspectRatio="xMidYMid meet" height="450" width="1500" xmlns="http://www.w3.org/2000/svg" xmlns:xlink="http://www.w3.org/1999/xlink"><g id="tight-bounds" transform="matrix(1,0,0,1,0.2400000000000091,-0.23166225201427437)"><svg viewBox="0 0 395.52 118.46332450402852" height="118.46332450402852" width="395.52"><g><svg viewBox="0 0 395.52 118.46332450402852" height="118.46332450402852" width="395.52"><g><svg viewBox="0 0 395.52 118.46332450402852" height="118.46332450402852" width="395.52"><g id="textblocktransform"><svg viewBox="0 0 395.52 118.46332450402852" height="118.46332450402852" width="395.52" id="textblock"><g><rect width="395.52" height="92.13843753002504" fill="none" stroke-width="8.962371322224001" stroke="#ffffff" data-fill-palette-color="none" data-stroke-palette-color="tertiary"></rect><rect width="395.52" height="27.324886974003476" y="92.13843753002504" fill="#ffffff" data-fill-palette-color="tertiary"></rect></g><g><svg viewBox="0 0 395.52 91.13843753002504" height="91.13843753002504" width="395.52"><g transform="matrix(1,0,0,1,23.461705032,23.461705032)"><svg width="348.596589936" viewBox="-0.55 -34.95 276.18 34.95" height="44.21502746602504" data-palette-color="#ffffff"><g class="wordmark-text-0" data-fill-palette-color="primary" id="text-0"><path d="M12.1-2.15L33.85-2.15 33.85 0-0.55 0-0.55-2.15 4.3-2.15 4.3-34.95 16.65-34.95Q24.7-34.95 28.38-31.83 32.05-28.7 32.05-22.23 32.05-15.75 28.28-12.75 24.5-9.75 16.75-9.75L16.75-9.75 12.1-9.75 12.1-2.15ZM17.35-16.5Q21.25-16.5 22.65-18.07 24.05-19.65 24.05-22.68 24.05-25.7 22.23-26.98 20.4-28.25 16.55-28.25L16.55-28.25 12.1-28.25 12.1-16.5 17.35-16.5ZM70.4-2.15L76.2-2.15 76.2 0 63.05 0 59.8-7.55 45.15-7.55 41.9 0 28.75 0 28.75-2.15 34.5-2.15 48.7-34.95 56.25-34.95 70.4-2.15ZM56.85-14.4L52.5-24.55 48.1-14.4 56.85-14.4ZM110.75-2.15L122.05-2.15 122.05 0 104.19 0 96.55-24.3 88.94 0 71.09 0 71.09-2.15 82.39-2.15 70.94-34.95 79.39-34.95 86.3-14.85 92.5-34.95 100.64-34.95 106.8-14.85 113.75-34.95 122.19-34.95 110.75-2.15ZM158.59-2.15L164.39-2.15 164.39 0 151.24 0 147.99-7.55 133.34-7.55 130.09 0 116.94 0 116.94-2.15 122.69-2.15 136.89-34.95 144.44-34.95 158.59-2.15ZM145.04-14.4L140.69-24.55 136.29-14.4 145.04-14.4ZM158.74-2.15L163.59-2.15 163.59-34.95 170.89-34.95 188.04-12.45 188.04-34.95 195.84-34.95 195.84-2.15 200.69-2.15 200.69 0 188.04 0 171.39-21.9 171.39 0 158.74 0 158.74-2.15ZM227.44-2.15L239.24-2.15 239.24 0 199.59 0 199.59-2.15 204.44-2.15 204.44-34.95 216.79-34.95Q226.14-34.95 231.14-30.38 236.14-25.8 236.14-17.5L236.14-17.5Q236.14-6.3 227.44-2.15L227.44-2.15ZM217.19-6.9Q222.54-6.9 225.41-9.6 228.29-12.3 228.29-17.45 228.29-22.6 225.41-25.38 222.54-28.15 216.59-28.15L216.59-28.15 212.24-28.15 212.24-6.9 217.19-6.9ZM270.79-2.15L275.63-2.15 275.63 0 236.69 0 236.69-2.15 241.54-2.15 241.54-5.35 259.84-28.2 242.14-28.2 242.14-34.95 270.49-34.95 270.49-29.55 252.24-6.8 270.79-6.8 270.79-2.15Z" fill="#ffffff" data-fill-palette-color="primary"></path></g></svg></g></svg></g><g transform="matrix(1,0,0,1,0,91.13843753002504)"><svg viewBox="0 0 395.52 27.324886974003476" height="27.324886974003476" width="395.52"><g transform="matrix(1,0,0,1,20,3.2)"><svg width="355.52" viewBox="2.5 -40.55 873.3 51.4" height="20.924886974003478" data-palette-color="#0718c4"><path d="M24.35-34.55L24.35-9.7Q24.35-5.15 21.53-2.23 18.7 0.7 13.45 0.7L13.45 0.7Q8.1 0.7 5.3-2.18 2.5-5.05 2.5-9.7L2.5-9.7 2.5-34.55 8.85-34.55 8.85-10Q8.85-7.1 9.95-5.68 11.05-4.25 13.45-4.25L13.45-4.25Q15.8-4.25 16.9-5.68 18-7.1 18-10L18-10 18-34.55 24.35-34.55ZM45.12-34.55L51.47-34.55 51.47 0 45.12 0 45.12-34.55ZM72.88 4.25L82.78-40.55 87.88-39.45 78.03 5.35 72.88 4.25ZM130.7-34.55L130.7-9.7Q130.7-5.15 127.88-2.23 125.05 0.7 119.8 0.7L119.8 0.7Q114.45 0.7 111.65-2.18 108.85-5.05 108.85-9.7L108.85-9.7 108.85-34.55 115.2-34.55 115.2-10Q115.2-7.1 116.3-5.68 117.4-4.25 119.8-4.25L119.8-4.25Q122.15-4.25 123.25-5.68 124.35-7.1 124.35-10L124.35-10 124.35-34.55 130.7-34.55ZM171.42-34.55L163.92-18.65 172.17 0 165.47 0 160.07-14.4 154.87 0 148.32 0 156.32-18.4 148.92-34.55 155.62-34.55 160.17-22.35 164.97-34.55 171.42-34.55ZM224.95-33.05Q223.55-33.05 222.88-32.3 222.2-31.55 222.2-30L222.2-30 222.2-26.45 227.25-26.45 226.55-22 222.2-22 222.2 0 216.05 0 216.05-22 212.75-22 212.75-26.45 216.05-26.45 216.05-29.8Q216.05-33.4 218.15-35.55 220.25-37.7 224.15-37.7L224.15-37.7Q227.2-37.7 230.05-36.2L230.05-36.2 228.35-32.2Q226.6-33.05 224.95-33.05L224.95-33.05ZM256.97-27.1Q258.12-27.1 259.02-26.75L259.02-26.75 258.02-20.85Q257.02-21.1 256.17-21.1L256.17-21.1Q254.27-21.1 253.17-19.45 252.07-17.8 251.47-14.55L251.47-14.55 251.47 0 245.32 0 245.32-26.45 250.67-26.45 251.12-21.85Q252.97-27.1 256.97-27.1L256.97-27.1ZM286.53-27.15Q291.53-27.15 294.31-23.65 297.08-20.15 297.08-13.25L297.08-13.25Q297.08-6.65 294.28-2.95 291.48 0.75 286.53 0.75L286.53 0.75Q281.58 0.75 278.78-2.88 275.98-6.5 275.98-13.25L275.98-13.25Q275.98-19.95 278.78-23.55 281.58-27.15 286.53-27.15L286.53-27.15ZM286.53-22.5Q284.38-22.5 283.38-20.38 282.38-18.25 282.38-13.25L282.38-13.25Q282.38-8.2 283.38-6.08 284.38-3.95 286.53-3.95L286.53-3.95Q288.68-3.95 289.68-6.08 290.68-8.2 290.68-13.25L290.68-13.25Q290.68-18.3 289.68-20.4 288.68-22.5 286.53-22.5L286.53-22.5ZM329.25-27.15Q332.1-27.15 333.75-25.1 335.4-23.05 335.4-19.6L335.4-19.6 335.4 0 329.25 0 329.25-18.9Q329.25-20.8 328.73-21.63 328.2-22.45 327.2-22.45L327.2-22.45Q325.1-22.45 323.05-18.5L323.05-18.5 323.05 0 316.9 0 316.9-26.45 322.25-26.45 322.7-23Q324.05-25.1 325.58-26.13 327.1-27.15 329.25-27.15L329.25-27.15ZM367.37-5L369.52-1.2Q367.07 0.75 363.77 0.75L363.77 0.75Q360.32 0.75 358.52-1.23 356.72-3.2 356.72-6.6L356.72-6.6 356.72-22 353.62-22 353.62-26.45 356.72-26.45 356.72-32.3 362.87-33.05 362.87-26.45 367.87-26.45 367.27-22 362.87-22 362.87-6.6Q362.87-4.2 364.92-4.2L364.92-4.2Q365.57-4.2 366.07-4.38 366.57-4.55 367.37-5L367.37-5ZM399.53-13.2L386.63-13.2 386.63-18.1 399.53-18.1 399.53-13.2ZM438.65-13.85Q438.65-13.4 438.5-11.3L438.5-11.3 424.85-11.3Q425.05-7.2 426.28-5.58 427.5-3.95 429.75-3.95L429.75-3.95Q431.3-3.95 432.55-4.48 433.8-5 435.25-6.15L435.25-6.15 437.8-2.65Q434.3 0.75 429.4 0.75L429.4 0.75Q424.2 0.75 421.43-2.85 418.65-6.45 418.65-13L418.65-13Q418.65-19.55 421.3-23.35 423.95-27.15 428.8-27.15L428.8-27.15Q433.45-27.15 436.05-23.78 438.65-20.4 438.65-13.85L438.65-13.85ZM432.65-15.3L432.65-15.65Q432.65-19.4 431.75-21.13 430.85-22.85 428.85-22.85L428.85-22.85Q427-22.85 426.03-21.18 425.05-19.5 424.85-15.3L424.85-15.3 432.65-15.3ZM470.57-27.15Q473.42-27.15 475.07-25.1 476.72-23.05 476.72-19.6L476.72-19.6 476.72 0 470.57 0 470.57-18.9Q470.57-20.8 470.04-21.63 469.52-22.45 468.52-22.45L468.52-22.45Q466.42-22.45 464.37-18.5L464.37-18.5 464.37 0 458.22 0 458.22-26.45 463.57-26.45 464.02-23Q465.37-25.1 466.89-26.13 468.42-27.15 470.57-27.15L470.57-27.15ZM510.48-37.7L516.63-37.05 516.63 0 511.18 0 510.88-3.05Q508.53 0.75 504.83 0.75L504.83 0.75Q500.73 0.75 498.56-2.93 496.38-6.6 496.38-13.2L496.38-13.2Q496.38-17.4 497.51-20.58 498.63-23.75 500.63-25.45 502.63-27.15 505.23-27.15L505.23-27.15Q508.43-27.15 510.48-24.5L510.48-24.5 510.48-37.7ZM506.58-3.9Q507.73-3.9 508.66-4.7 509.58-5.5 510.48-7L510.48-7 510.48-19.85Q508.88-22.55 506.83-22.55L506.83-22.55Q502.78-22.55 502.78-13.25L502.78-13.25Q502.78-8.2 503.78-6.05 504.78-3.9 506.58-3.9L506.58-3.9ZM575.67-37.7L581.82-37.05 581.82 0 576.37 0 576.07-3.05Q573.72 0.75 570.02 0.75L570.02 0.75Q565.92 0.75 563.74-2.93 561.57-6.6 561.57-13.2L561.57-13.2Q561.57-17.4 562.69-20.58 563.82-23.75 565.82-25.45 567.82-27.15 570.42-27.15L570.42-27.15Q573.62-27.15 575.67-24.5L575.67-24.5 575.67-37.7ZM571.77-3.9Q572.92-3.9 573.84-4.7 574.77-5.5 575.67-7L575.67-7 575.67-19.85Q574.07-22.55 572.02-22.55L572.02-22.55Q567.97-22.55 567.97-13.25L567.97-13.25Q567.97-8.2 568.97-6.05 569.97-3.9 571.77-3.9L571.77-3.9ZM621.63-13.85Q621.63-13.4 621.48-11.3L621.48-11.3 607.83-11.3Q608.03-7.2 609.26-5.58 610.48-3.95 612.73-3.95L612.73-3.95Q614.28-3.95 615.53-4.48 616.78-5 618.23-6.15L618.23-6.15 620.78-2.65Q617.28 0.75 612.38 0.75L612.38 0.75Q607.18 0.75 604.41-2.85 601.63-6.45 601.63-13L601.63-13Q601.63-19.55 604.28-23.35 606.93-27.15 611.78-27.15L611.78-27.15Q616.43-27.15 619.03-23.78 621.63-20.4 621.63-13.85L621.63-13.85ZM615.63-15.3L615.63-15.65Q615.63-19.4 614.73-21.13 613.83-22.85 611.83-22.85L611.83-22.85Q609.98-22.85 609.01-21.18 608.03-19.5 607.83-15.3L607.83-15.3 615.63-15.3ZM653.6-26.45L659.65-26.45 652.75 0 645.5 0 638.4-26.45 644.75-26.45 649.1-4.95 653.6-26.45ZM696.67-13.85Q696.67-13.4 696.52-11.3L696.52-11.3 682.87-11.3Q683.07-7.2 684.29-5.58 685.52-3.95 687.77-3.95L687.77-3.95Q689.32-3.95 690.57-4.48 691.82-5 693.27-6.15L693.27-6.15 695.82-2.65Q692.32 0.75 687.42 0.75L687.42 0.75Q682.22 0.75 679.44-2.85 676.67-6.45 676.67-13L676.67-13Q676.67-19.55 679.32-23.35 681.97-27.15 686.82-27.15L686.82-27.15Q691.47-27.15 694.07-23.78 696.67-20.4 696.67-13.85L696.67-13.85ZM690.67-15.3L690.67-15.65Q690.67-19.4 689.77-21.13 688.87-22.85 686.87-22.85L686.87-22.85Q685.02-22.85 684.04-21.18 683.07-19.5 682.87-15.3L682.87-15.3 690.67-15.3ZM721.83 0.75Q719.13 0.75 717.56-0.93 715.98-2.6 715.98-5.4L715.98-5.4 715.98-37.05 722.13-37.7 722.13-5.65Q722.13-5 722.43-4.6 722.73-4.2 723.33-4.2L723.33-4.2Q723.68-4.2 724.01-4.3 724.33-4.4 724.43-4.4L724.43-4.4 725.63-0.2Q723.93 0.75 721.83 0.75L721.83 0.75ZM753.35-27.15Q758.35-27.15 761.13-23.65 763.9-20.15 763.9-13.25L763.9-13.25Q763.9-6.65 761.1-2.95 758.3 0.75 753.35 0.75L753.35 0.75Q748.4 0.75 745.6-2.88 742.8-6.5 742.8-13.25L742.8-13.25Q742.8-19.95 745.6-23.55 748.4-27.15 753.35-27.15L753.35-27.15ZM753.35-22.5Q751.2-22.5 750.2-20.38 749.2-18.25 749.2-13.25L749.2-13.25Q749.2-8.2 750.2-6.08 751.2-3.95 753.35-3.95L753.35-3.95Q755.5-3.95 756.5-6.08 757.5-8.2 757.5-13.25L757.5-13.25Q757.5-18.3 756.5-20.4 755.5-22.5 753.35-22.5L753.35-22.5ZM795.92-27.15Q799.82-27.15 801.82-23.58 803.82-20 803.82-13.3L803.82-13.3Q803.82-6.8 801.54-3.03 799.27 0.75 795.22 0.75L795.22 0.75Q792.02 0.75 789.87-2.1L789.87-2.1 789.87 10.15 783.72 10.85 783.72-26.45 789.17-26.45 789.42-23.25Q790.72-25.25 792.32-26.2 793.92-27.15 795.92-27.15L795.92-27.15ZM793.57-3.95Q795.47-3.95 796.47-6.13 797.47-8.3 797.47-13.25L797.47-13.25Q797.47-18.45 796.62-20.5 795.77-22.55 793.97-22.55L793.97-22.55Q791.67-22.55 789.87-19.25L789.87-19.25 789.87-6.45Q791.47-3.95 793.57-3.95L793.57-3.95ZM842.53-13.85Q842.53-13.4 842.38-11.3L842.38-11.3 828.73-11.3Q828.93-7.2 830.16-5.58 831.38-3.95 833.63-3.95L833.63-3.95Q835.18-3.95 836.43-4.48 837.68-5 839.13-6.15L839.13-6.15 841.68-2.65Q838.18 0.75 833.28 0.75L833.28 0.75Q828.08 0.75 825.31-2.85 822.53-6.45 822.53-13L822.53-13Q822.53-19.55 825.18-23.35 827.83-27.15 832.68-27.15L832.68-27.15Q837.33-27.15 839.93-23.78 842.53-20.4 842.53-13.85L842.53-13.85ZM836.53-15.3L836.53-15.65Q836.53-19.4 835.63-21.13 834.73-22.85 832.73-22.85L832.73-22.85Q830.88-22.85 829.91-21.18 828.93-19.5 828.73-15.3L828.73-15.3 836.53-15.3ZM873.75-27.1Q874.9-27.1 875.8-26.75L875.8-26.75 874.8-20.85Q873.8-21.1 872.95-21.1L872.95-21.1Q871.05-21.1 869.95-19.45 868.85-17.8 868.25-14.55L868.25-14.55 868.25 0 862.1 0 862.1-26.45 867.45-26.45 867.9-21.85Q869.75-27.1 873.75-27.1L873.75-27.1Z" opacity="1" transform="matrix(1,0,0,1,0,0)" fill="#0718c4" class="slogan-text-1" data-fill-palette-color="quaternary" id="text-1"></path></svg></g></svg></g></svg></g></svg></g><g></g></svg></g><defs></defs></svg><rect width="395.52" height="118.46332450402852" fill="none" stroke="none" visibility="hidden"></rect></g></svg></g></svg>